<svg xmlns="http://www.w3.org/2000/svg" viewBox="0 0 40.12 50.12"><defs><style>.cls-1{fill:none;}.cls-1,.cls-2{stroke:#000;stroke-miterlimit:10;stroke-width:0.12px;}</style></defs><g id="Layer_2" data-name="Layer 2"><g id="Слой_1" data-name="Слой 1"><path class="cls-1" d="M19.87,17.82c-3.64-6-18.56-7-19.73,7.19-.72,8.8,3.55,17.36,6,20.73,5.72,8,13.7,2.38,13.7,2.38S35,58.76,39.71,30.23C41.8,17.5,34,14,29.27,13.69A11.46,11.46,0,0,0,19.87,17.82Z"/><path class="cls-1" d="M5,.2a11.49,11.49,0,0,1,9.53,2.61c3.12,2.58,4.62,8.44,4.51,8.88,0,0-3.89,1-6.71-.73A12.43,12.43,0,0,1,6.41,3.8C5,0,5,.2,5,.2Z"/><path class="cls-2" d="M19.87,17.82C21,8.93,21.73,7.18,25.37,4.68c0,0-.22-.92.88-2.83a12.67,12.67,0,0,0-4,4.21A20.08,20.08,0,0,0,20,13.79C19.86,15.66,19.87,17.82,19.87,17.82Z"/><path class="cls-1" d="M5,.2c5.35,2.27,8.53,4.07,14,11.49l0,0a4.75,4.75,0,0,1,1.11,2.13"/></g></g></svg>