<svg xmlns="http://www.w3.org/2000/svg" viewBox="0 0 40.2 50.13"><defs><style>.cls-1{fill:none;stroke:#000;stroke-miterlimit:10;stroke-width:0.13px;}</style></defs><g id="Layer_2" data-name="Layer 2"><g id="Слой_2" data-name="Слой 2"><path class="cls-1" d="M29.8,31.91c1,1.08,1,2.16.77,3.69a6.06,6.06,0,0,1-2.66,4.45c-2,1.5-4,2.72-6.92,1.66s-2.13-3.94-1.11-5c1.82-1.82,2.49-1.19,3.53-2.17s1-1.87,1.93-2.74A3.66,3.66,0,0,1,29.8,31.91Z"/><path class="cls-1" d="M22.1,36.29a3.18,3.18,0,0,0,3.32-2.95"/><path class="cls-1" d="M35.68,20c1,.48,1.33,1.27,1.6,2.45a4.75,4.75,0,0,1-.66,4c-1,1.68-2.08,3.13-4.52,3.23s-2.65-2.24-2.2-3.29c.79-1.85,1.46-1.59,1.92-2.6s.19-1.64.62-2.55A2.83,2.83,0,0,1,35.68,20Z"/><path class="cls-1" d="M31.23,25.54a2.59,2.59,0,0,0,1.61-3.19"/><path class="cls-1" d="M16.79,42.67a2.77,2.77,0,0,1-.33,2.69,4.26,4.26,0,0,1-2.83,2.39c-1.7.55-3.31.91-5.07-.52A2.12,2.12,0,0,1,9,43.58c1.64-.81,2-.22,2.88-.64s1.1-1,1.94-1.4A2.63,2.63,0,0,1,16.79,42.67Z"/><path class="cls-1" d="M10.21,44.12a2.23,2.23,0,0,0,2.91-1.19"/><path class="cls-1" d="M37.23,9.2c.8.19,1.12.7,1.48,1.49a3.42,3.42,0,0,1,.11,2.92c-.47,1.32-1,2.51-2.72,2.94a1.63,1.63,0,0,1-2-2c.29-1.41.8-1.33,1-2.11s-.1-1.19.07-1.89A2.06,2.06,0,0,1,37.23,9.2Z"/><path class="cls-1" d="M34.9,13.8a1.87,1.87,0,0,0,.68-2.48"/><path class="cls-1" d="M36.26,1.56c-.55.1-1.34,2.53-1.6,3.59a12.47,12.47,0,0,0-.52,2.57c0,.1.16,0,.2,0a2.42,2.42,0,0,1,1.08-.58,2.38,2.38,0,0,1,1.09.69s.05,0,.05,0,0,0,.06,0a2.64,2.64,0,0,1,1-.59c.51.07.57.06,1.28.62A4.46,4.46,0,0,0,39,6.27a8.55,8.55,0,0,0-.63-2.52c-.54-1.31-.72-2-1.21-2.21-.12,0,0-.85.34-1.27A1.79,1.79,0,0,0,36.12.16a.14.14,0,0,0-.07.14A8.15,8.15,0,0,1,36.26,1.56Z"/><path class="cls-1" d="M38.46,7.49c1.86,3.45,2.61,7.32-.08,11.14.8.79,3.17,10.67-5.24,14.27.3.31.39,12.19-12.93,11.71a13.89,13.89,0,0,1-3.54,3.8A10.5,10.5,0,0,1,11,50.06c-4.62.16-10.89-4-10.89-4,17.48-7,23.7-16.4,25.56-19,3.21-4.42,6.21-10,9.05-19.75"/></g></g></svg>