<svg xmlns="http://www.w3.org/2000/svg" xmlns:xlink="http://www.w3.org/1999/xlink" viewBox="0 0 40.2 50.2"><defs><style>.cls-1,.cls-2,.cls-3,.cls-4{stroke:#000;stroke-linecap:round;stroke-linejoin:round;stroke-width:0.2px;}.cls-1{fill:url(#Безымянный_градиент_22);}.cls-2{fill:url(#Безымянный_градиент_29);}.cls-3{fill:#413a84;}.cls-4{fill:url(#Безымянный_градиент_29-2);}</style><radialGradient id="Безымянный_градиент_22" cx="21.35" cy="37.47" r="26.63" gradientTransform="matrix(0.77, 0.23, -0.13, 0.48, 8.64, 7.46)" gradientUnits="userSpaceOnUse"><stop offset="0" stop-color="#594c84"/><stop offset="1" stop-color="#413a84"/></radialGradient><linearGradient id="Безымянный_градиент_29" x1="2.04" y1="3.11" x2="5.22" y2="3.11" gradientUnits="userSpaceOnUse"><stop offset="0" stop-color="#7a9344"/><stop offset="0.89" stop-color="#586931"/><stop offset="1" stop-color="#53632e"/></linearGradient><linearGradient id="Безымянный_градиент_29-2" x1="0.19" y1="9.86" x2="10.76" y2="9.86" xlink:href="#Безымянный_градиент_29"/></defs><g id="Layer_2" data-name="Layer 2"><g id="Слой_2" data-name="Слой 2"><path class="cls-1" d="M3.05,10.72C-4.5,17.79,2.18,52.55,26.45,50c20.63-2.2,15.6-25.69,0-25.52-9.57.1-16.87-4.31-17.51-12.62"/><path class="cls-2" d="M2.05,1.73A17.86,17.86,0,0,1,4.57.1S4.48,4.76,5.21,5A4.92,4.92,0,0,0,3,6.1C2.82,6.25,3.51,3,2.05,1.73Z"/><path class="cls-3" d="M3.05,10.72,4.58,9.23s-.15-.18.63-.18.6.9,1.72.45,2,2.32,2,2.32"/><path class="cls-4" d="M5.48,5.44A7.23,7.23,0,0,1,9.13,7.66,7,7,0,0,1,10.76,12a2.82,2.82,0,0,1-2.3-.46,10.06,10.06,0,0,1-1.53-2,5,5,0,0,1-.08,2.55,5.42,5.42,0,0,1-1.53,2.24,4.57,4.57,0,0,1-1.15-2.56,6.63,6.63,0,0,1,.41-2.5,7.22,7.22,0,0,1-2.32,2,6.59,6.59,0,0,1-2.06.38S-.07,9.48,2.26,7.3A7.5,7.5,0,0,1,5.48,5.44Z"/></g></g></svg>