<svg xmlns="http://www.w3.org/2000/svg" viewBox="0 0 40.2 50.28"><defs><style>.cls-1{fill:none;stroke:#000;stroke-miterlimit:10;stroke-width:0.2px;}</style></defs><g id="Layer_2" data-name="Layer 2"><g id="Слой_1" data-name="Слой 1"><path class="cls-1" d="M3.05,10.79C-4.5,17.87,2.18,52.63,26.45,50c20.63-2.2,15.6-25.69,0-25.53-9.57.1-16.87-4.3-17.51-12.61"/><path class="cls-1" d="M2.05,1.8A17.81,17.81,0,0,1,4.57.18s-.09,4.65.64,4.9A4.8,4.8,0,0,0,3,6.18C2.82,6.33,3.51,3,2.05,1.8Z"/><path class="cls-1" d="M5.48,5.52A7.23,7.23,0,0,1,9.13,7.74a7,7,0,0,1,1.63,4.31,2.8,2.8,0,0,1-2.3-.47,10.13,10.13,0,0,1-1.53-2,5,5,0,0,1-.08,2.55,5.43,5.43,0,0,1-1.53,2.23,4.53,4.53,0,0,1-1.15-2.55,6.63,6.63,0,0,1,.41-2.5,7.22,7.22,0,0,1-2.32,2,6.59,6.59,0,0,1-2.06.38S-.07,9.55,2.26,7.38A7.37,7.37,0,0,1,5.48,5.52Z"/></g></g></svg>