<svg xmlns="http://www.w3.org/2000/svg" xmlns:xlink="http://www.w3.org/1999/xlink" viewBox="0 0 40.31 50.13"><defs><style>.cls-1,.cls-2,.cls-3,.cls-4,.cls-5,.cls-6,.cls-7,.cls-8,.cls-9{stroke:#000;stroke-miterlimit:10;}.cls-1,.cls-2,.cls-5,.cls-7,.cls-9{stroke-width:0.45px;}.cls-1{fill:url(#Безымянный_градиент_36);}.cls-2{fill:url(#Безымянный_градиент_36-2);}.cls-3{stroke-width:0.43px;fill:url(#Безымянный_градиент_36-3);}.cls-4,.cls-9{fill:none;}.cls-4{stroke-width:0.78px;}.cls-5{fill:url(#Безымянный_градиент_36-4);}.cls-6{stroke-width:0.42px;fill:url(#Безымянный_градиент_36-5);}.cls-7{fill:url(#Безымянный_градиент_36-6);}.cls-8{stroke-width:0.44px;fill:url(#Безымянный_градиент_36-7);}</style><linearGradient id="Безымянный_градиент_36" x1="30.77" y1="16.1" x2="8.59" y2="16.1" gradientUnits="userSpaceOnUse"><stop offset="0" stop-color="#ccaf37"/><stop offset="1" stop-color="#b88a0f"/></linearGradient><linearGradient id="Безымянный_градиент_36-2" x1="30.77" y1="15.39" x2="8.59" y2="15.39" xlink:href="#Безымянный_градиент_36"/><linearGradient id="Безымянный_градиент_36-3" x1="30.77" y1="26.02" x2="8.59" y2="26.02" xlink:href="#Безымянный_градиент_36"/><linearGradient id="Безымянный_градиент_36-4" x1="30.77" y1="22.87" x2="8.59" y2="22.87" xlink:href="#Безымянный_градиент_36"/><linearGradient id="Безымянный_градиент_36-5" x1="30.77" y1="33.04" x2="8.59" y2="33.04" xlink:href="#Безымянный_градиент_36"/><linearGradient id="Безымянный_градиент_36-6" x1="30.77" y1="31.85" x2="8.59" y2="31.85" xlink:href="#Безымянный_градиент_36"/><linearGradient id="Безымянный_градиент_36-7" x1="30.77" y1="41.01" x2="8.59" y2="41.01" xlink:href="#Безымянный_градиент_36"/></defs><g id="Layer_2" data-name="Layer 2"><g id="заливка"><path class="cls-1" d="M23.86,12.87c-3,2.8-3.3,5.47-2,7.22s3.74,1.91,6.76-.89S31.71,11,31.71,11,26.88,10.07,23.86,12.87Z"/><path class="cls-2" d="M12.86,16.18c0,4.36,1.66,6.31,3.72,6.31s3.73-1.95,3.73-6.31-3.73-7.9-3.73-7.9S12.86,11.81,12.86,16.18Z"/><path class="cls-3" d="M24.52,22.15c-3.73-.63-5.64.84-5.93,3s1.13,4.19,4.85,4.82,7.27-2.76,7.27-2.76S28.24,22.78,24.52,22.15Z"/><path class="cls-4" d="M22.11,20.11c-7.79,4.26-15.74,19-16.21,30"/><path class="cls-5" d="M6.08,24.94c1.38,4.08,3.55,5.27,5.48,4.48s2.88-3.27,1.51-7.36-6-6-6-6S4.71,20.85,6.08,24.94Z"/><path class="cls-6" d="M19.59,29.47c-3.5-1.33-5.58-.28-6.21,1.75s.44,4.26,3.94,5.59,7.47-1.26,7.47-1.26S23.09,30.8,19.59,29.47Z"/><path class="cls-7" d="M1.25,34.38c2,3.75,4.34,4.49,6.11,3.32s2.3-3.79.29-7.54S.81,25.49.81,25.49-.76,30.63,1.25,34.38Z"/><path class="cls-8" d="M15.57,37.31c-3.63-1.39-5.79-.3-6.45,1.8s.44,4.44,4.08,5.83S21,43.64,21,43.64,19.21,38.7,15.57,37.31Z"/><path class="cls-9" d="M31.71,11,36,6.56"/><line class="cls-9" x1="26.19" y1="11.51" x2="31.49" y2="3"/><path class="cls-9" d="M30.35,16.78l8.1-5.05"/><line class="cls-9" x1="16.58" y1="8.44" x2="19.31" y2="0.07"/><path class="cls-9" d="M30.59,27.14,40.22,25"/><line class="cls-9" x1="19.95" y1="13.66" x2="26.17" y2="0.78"/><path class="cls-9" d="M27.26,23.32l13-5.42"/></g></g></svg>