<svg xmlns="http://www.w3.org/2000/svg" viewBox="0 0 40.31 50.19"><defs><style>.cls-1,.cls-2,.cls-3,.cls-4,.cls-5{fill:none;stroke:#000;stroke-miterlimit:10;}.cls-1{stroke-width:0.45px;}.cls-2{stroke-width:0.43px;}.cls-3{stroke-width:0.78px;}.cls-4{stroke-width:0.42px;}.cls-5{stroke-width:0.44px;}</style></defs><g id="Layer_2" data-name="Layer 2"><g id="Layer_2-2" data-name="Layer 2"><g id="Layer_2-3" data-name="Layer 2"><path class="cls-1" d="M23.83,12.87c-3,2.8-3.3,5.5-2,7.2s3.7,1.9,6.8-.9,3.1-8.2,3.1-8.2S26.83,10.07,23.83,12.87Z"/><path class="cls-1" d="M12.83,16.17c0,4.4,1.7,6.3,3.7,6.3s3.7-2,3.7-6.3-3.7-7.9-3.7-7.9S12.83,11.87,12.83,16.17Z"/><path class="cls-2" d="M24.43,22.17c-3.7-.6-5.6.8-5.9,3s1.1,4.2,4.9,4.8,7.3-2.8,7.3-2.8S28.23,22.87,24.43,22.17Z"/><path class="cls-3" d="M22,20.17c-7.8,4.3-15.7,19-16.2,30"/><path class="cls-1" d="M6,25c1.4,4.1,3.5,5.3,5.5,4.5s2.9-3.3,1.5-7.4-6-6-6-6S4.63,20.87,6,25Z"/><path class="cls-4" d="M19.53,29.47c-3.5-1.3-5.6-.3-6.2,1.7s.4,4.3,3.9,5.6,7.5-1.3,7.5-1.3S23,30.87,19.53,29.47Z"/><path class="cls-1" d="M1.23,34.47c2,3.7,4.3,4.5,6.1,3.3s2.3-3.8.3-7.5-6.8-4.7-6.8-4.7S-.77,30.67,1.23,34.47Z"/><path class="cls-5" d="M15.53,37.37c-3.6-1.4-5.8-.3-6.5,1.8s.4,4.4,4.1,5.8,7.8-1.3,7.8-1.3S19.13,38.77,15.53,37.37Z"/><path class="cls-1" d="M31.63,11c1.3-1.3,3-3.1,4.2-4.4"/><line class="cls-1" x1="26.13" y1="11.57" x2="31.43" y2="3.07"/><path class="cls-1" d="M30.33,16.87c3.3-2,4.8-3,8.1-5"/><line class="cls-1" x1="16.53" y1="8.47" x2="19.23" y2="0.07"/><path class="cls-1" d="M30.53,27.17c5.4-1.2,4.2-.9,9.6-2.1"/><line class="cls-1" x1="19.93" y1="13.67" x2="26.13" y2="0.87"/><path class="cls-1" d="M27.23,23.37l13-5.4"/></g></g></g></svg>