<svg xmlns="http://www.w3.org/2000/svg" viewBox="0 0 40.25 50.23"><defs><style>.cls-1,.cls-2{fill:none;stroke:#000;stroke-miterlimit:10;}.cls-1{stroke-width:0.25px;}.cls-2{stroke-width:0.22px;}</style></defs><g id="Layer_2" data-name="Layer 2"><g id="контур"><path class="cls-1" d="M16.71,1.68V.56a.43.43,0,0,1,.43-.43h6.58a.43.43,0,0,1,.43.43V1.87"/><path class="cls-2" d="M33.79,25.3c1.36-.88,2.87-3.94,3-6.17a7.42,7.42,0,0,0-7.46-8.19,6,6,0,0,0-4.8,2.71"/><path class="cls-2" d="M33.31,24.9a8.83,8.83,0,0,0,2.86-5,7,7,0,0,0-7.29-8.24c-1.77.2-3,1.27-4.25,2.75"/><path class="cls-2" d="M6.44,26c6.13,1.88,18.79,2.9,28.14,0"/><path class="cls-2" d="M29.87,31.64c2.51,2.29,8.6,6.91-.59,12.17,0,0,3.29-3.5,3.47-6.22C32.91,35.06,29.09,30.92,29.87,31.64Z"/><path class="cls-2" d="M9.83,48.44c-1.3-.07-2.36-.16-2.58.65-.27,1,2,.9,2.82.9s23.13.21,23.8.11c.82-.11,1-.45,1-.89,0-1.09-2.11-.88-2.11-.88"/><path class="cls-1" d="M32.72,48.33c5.53-1.57,8.3-6.2,7.15-13.55C38.54,26.32,28.34,22.58,26,18.43c-2.59-4.64-1.83-10.75.67-16,.08-.88-12.35-.91-14.17-.46A9.53,9.53,0,0,0,8.46,4c5-.36,7.07,3,7.3,4.1s2.42,7.18-1.85,11.65a88.42,88.42,0,0,1-7,5.9C3.66,28.3,2,30,.83,33.4c-1.7,4.83-.9,13.38,9,15"/></g></g></svg>