<svg xmlns="http://www.w3.org/2000/svg" xmlns:xlink="http://www.w3.org/1999/xlink" viewBox="0 0 40.25 50.25"><defs><style>.cls-1,.cls-2,.cls-3,.cls-4{stroke:#000;stroke-miterlimit:10;}.cls-1,.cls-2,.cls-4{stroke-width:0.25px;}.cls-1{fill:url(#Безымянный_градиент_162);}.cls-2{fill:#473502;}.cls-3{fill:none;stroke-width:0.22px;}.cls-4{fill:url(#Безымянный_градиент_91);}</style><linearGradient id="Безымянный_градиент_162" x1="5.14" y1="31.01" x2="37.54" y2="45.02" gradientUnits="userSpaceOnUse"><stop offset="0" stop-color="#a37511"/><stop offset="0.11" stop-color="#ac8121"/><stop offset="0.72" stop-color="#dac479"/><stop offset="1" stop-color="#edde9c"/></linearGradient><linearGradient id="Безымянный_градиент_91" x1="36.74" y1="19.87" x2="6.39" y2="11.25" gradientUnits="userSpaceOnUse"><stop offset="0" stop-color="#f0f4fa"/><stop offset="1" stop-color="#b5d7f7"/></linearGradient></defs><g id="Layer_2" data-name="Layer 2"><g id="цветное_масло" data-name="цветное масло"><path class="cls-1" d="M9.83,48.44c-1.3-.07-2.36-.16-2.58.65-.27,1,2,.9,2.82.9s23.13.21,23.8.11c.82-.11,1-.45,1-.89,0-1.09-2.11-.88-2.11-.88,5.53-1.57,8.3-6.2,7.15-13.55-.58-3.65-2.81-6.43-5.34-8.73L6.44,26C3.51,28.46,2,30.14.83,33.4-.87,38.23-.07,46.78,9.83,48.44Z"/><rect class="cls-2" x="16.71" y="0.13" width="7.44" height="2.32" rx="0.43"/><path class="cls-3" d="M29.87,31.64c2.51,2.29,8.6,6.91-.59,12.17,0,0,3.29-3.5,3.47-6.22C32.91,35.06,29.09,30.92,29.87,31.64Z"/><path class="cls-4" d="M24.52,13.65A21,21,0,0,1,26.7,2.43c.08-.88-12.35-.91-14.17-.46A9.53,9.53,0,0,0,8.46,4c5-.36,7.07,3,7.3,4.1s2.42,7.18-1.85,11.65a88.42,88.42,0,0,1-7,5.9L6.44,26c6.13,1.88,18.75,3,28.09.05h0l-.79-.7-.48-.41a9,9,0,0,0,2.91-5.05,7,7,0,0,0-7.29-8.24c-1.77.2-3,1.27-4.25,2.75,0-.24-.08-.49-.11-.75a6,6,0,0,1,4.8-2.71,7.42,7.42,0,0,1,7.46,8.19c-.12,2.23-1.67,5.31-3,6.2l-.48-.39c-3-2.49-6.09-4.45-7.23-6.51a12.47,12.47,0,0,1-1.4-4"/></g></g></svg>